{"title":"Various - The Glory Of Gershwin [EAC-FLAC] [RePoPo]","uid":4873493,"size":439695836,"categoryP":"audio","categoryS":"flac","magnet":"?xt=urn:btih:96074fbc4675b46901449902d19c69e41d7770d2&amp;dn=Various+-+The+Glory+Of+Gershwin+%5BEAC-FLAC%5D+%5BRePoPo%5D&amp;tr=udp%3A%2F%2Ftracker.openbittorrent.com%3A80&amp;tr=udp%3A%2F%2Fopen.demonii.com%3A1337&amp;tr=udp%3A%2F%2Ftracker.coppersurfer.tk%3A6969&amp;tr=udp%3A%2F%2Fexodus.desync.com%3A6969","seeders":3,"leechers":0,"uploader":"repopo","files":-1,"time":1240970205,"description":"*******************************************************************************\n                        Various - The Glory Of Gershwin\n*******************************************************************************\n\nCD: Various - The Glory Of Gershwin\n\n01. Peter Gabriel / Summertime    [0:03:50.15]\n02. Chris de Burgh / Do What You Do    [0:03:35.70]\n03. Sting / Nice Work If You Can Get It    [0:03:02.27]\n04. Lisa Stansfield / They Can't Take That Away From Me    [0:03:16.65]\n05. Elton John / Someone To Watch Over Me (Love Is Here To Stay)  [0:06:41.08]\n06. Carly Simon / I've Got A Crush On You    [0:03:36.15]\n07. Elvis Costello / But Not For Me    [0:05:04.32]\n08. Cher / It Ain't Necessarily So    [0:04:12.15]\n09. Kate Bush / The Man I Love    [0:03:19.70]\n10. Jon Bon Jovi / How Long Has This Been Going On    [0:05:07.03]\n11. Oleta Adams / Embraceable You    [0:03:54.40]\n12. Willard White / Bidin' My Time    [0:03:31.20]\n13. Sinead O'Connor / My Man's Gone Now    [0:03:37.72]\n14. Robert Palmer / I Got Rhythm    [0:03:54.53]\n15. Meat Loaf / Somebody Loves Me    [0:04:14.60]\n16. Issy van Randwyck / I'll Build A Stairway To Paradise    [0:04:32.47]\n17. Courtney Pine / Summertime    [0:04:00.50]\n18. Larry Adler &amp; George Martin / Rhapsody In Blue    [0:08:28.10]\n\n-------------------------------------------------------------------------------\n\nReview\tby arwulf arwulf\n\nMouth organ virtuoso Larry Adler's last big project was a 1994 all-star tribute \nto composer and pianist George Gershwin. Produced in celebration of Adler's 80th \nbirthday, this album sold over two million copies. The octogenarian is heard \nplying his harmonica alongside artists mainly associated with late 20th century \npop music. Kate Bush sings &quot;The Man I Love,&quot; Elvis Costello intones &quot;But Not for \nMe,&quot; and SinÃƒÂ©ad O'Connor breathes &quot;My Man's Gone Now.&quot; Robert Palmer tosses off \n&quot;I Got Rhythm,&quot; Meat Loaf claims that &quot;Somebody Loves Me,&quot; Lisa Stansfield \ninsists that &quot;They Can't Take That Away from Me,&quot; and Elton John does up both \n&quot;Someone to Watch Over Me&quot; and &quot;Love is Here to Stay.&quot; There is a lovely version \nof &quot;Embraceable You&quot; sung by Oleta Adams, &quot;I've Got a Crush on You&quot; was assigned \nto Carly Simon, &quot;It Ain't Necessarily So&quot; (the title of Adler's autobiography) \nis delivered by Cher, and Sting presents &quot;Nice Work if You Can Get It.&quot; Peter \nGabriel and saxophonist Courtney Pine each interpret &quot;Summertime,&quot; and Adler is \nbacked by an orchestra under the direction of George Martin for the grand \nfinale, an eight-and-a-half-minute arrangement of the &quot;Rhapsody in Blue.&quot; \n\n-------------------------------------------------------------------------------\n\nExact Audio Copy V0.99 prebeta 4 from 23. January 2008\n\nEAC extraction logfile from 29. April 2009, 1:45\n\nVarious / The Glory Of Gershwin\n\nUsed drive  : HL-DT-STDVD-RAM GSA-H55N   Adapter: 3  ID: 1\n\nRead mode               : Secure\nUtilize accurate stream : Yes\nDefeat audio cache      : No\nMake use of C2 pointers : No\n\nRead offset correction                      : 102\nOverread into Lead-In and Lead-Out          : No\nFill up missing offset samples with silence : Yes\nDelete leading and trailing silent blocks   : No\nNull samples used in CRC calculations       : No\nUsed interface                              : Native Win32 interface for Win NT \n&amp; 2000\nGap handling                                : Not detected, thus appended to \nprevious track\n\nUsed output format              : User Defined Encoder\nSelected bitrate                : 1024 kBit/s\nQuality                         : High\nAdd ID3 tag                     : Yes\nCommand line compressor         : F:Archivos de programaExact Audio \nCopyFLACFLAC.EXE\nAdditional command line options : -6 -V -T &quot;ARTIST=%a&quot; -T &quot;TITLE=%t&quot; -T \n&quot;ALBUM=%g&quot; -T &quot;DATE=%y&quot; -T &quot;TRACKNUMBER=%n&quot; -T &quot;GENRE=%m&quot; -T &quot;COMMENT=%e&quot; %s -o \n%d\n\n\nTOC of the extracted CD\n\n     Track |   Start  |  Length  | Start sector | End sector \n    ---------------------------------------------------------\n        1  |  0:00.33 |  3:50.15 |        33    |    17297   \n        2  |  3:50.48 |  3:35.70 |     17298    |    33492   \n        3  |  7:26.43 |  3:02.27 |     33493    |    47169   \n        4  | 10:28.70 |  3:16.65 |     47170    |    61934   \n        5  | 13:45.60 |  6:41.08 |     61935    |    92017   \n        6  | 20:26.68 |  3:36.15 |     92018    |   108232   \n        7  | 24:03.08 |  5:04.32 |    108233    |   131064   \n        8  | 29:07.40 |  4:12.15 |    131065    |   149979   \n        9  | 33:19.55 |  3:19.70 |    149980    |   164974   \n       10  | 36:39.50 |  5:07.03 |    164975    |   188002   \n       11  | 41:46.53 |  3:54.40 |    188003    |   205592   \n       12  | 45:41.18 |  3:31.20 |    205593    |   221437   \n       13  | 49:12.38 |  3:37.72 |    221438    |   237784   \n       14  | 52:50.35 |  3:54.53 |    237785    |   255387   \n       15  | 56:45.13 |  4:14.60 |    255388    |   274497   \n       16  | 60:59.73 |  4:32.47 |    274498    |   294944   \n       17  | 65:32.45 |  4:00.50 |    294945    |   312994   \n       18  | 69:33.20 |  8:28.10 |    312995    |   351104   \n\n-------------------------------------------------------------------------------\n-------------------------------------------------------------------------------","torrent":{"xt":"urn:btih:96074fbc4675b46901449902d19c69e41d7770d2","amp;dn":"Various+-+The+Glory+Of+Gershwin+%5BEAC-FLAC%5D+%5BRePoPo%5D","amp;tr":["udp%3A%2F%2Ftracker.openbittorrent.com%3A80","udp%3A%2F%2Fopen.demonii.com%3A1337","udp%3A%2F%2Ftracker.coppersurfer.tk%3A6969","udp%3A%2F%2Fexodus.desync.com%3A6969"],"infoHash":"96074fbc4675b46901449902d19c69e41d7770d2","infoHashBuffer":{"type":"Buffer","data":[150,7,79,188,70,117,180,105,1,68,153,2,209,156,105,228,29,119,112,210]},"announce":[],"urlList":[]}}